<?xml version="1.0" encoding="UTF-8"?>
<svg width="1200pt" height="1200pt" version="1.1" viewBox="0 0 1200 1200" xmlns="http://www.w3.org/2000/svg">
 <path d="m555.43 1085.7h-361.9l461.19-461.18c13.52-13.531 13.543-35.523 0-49.055l-461.18-461.18h361.89l485.72 485.71zm559.31-510.23-520.41-520.41c-6.5039-6.5156-15.332-10.164-24.516-10.164h-460.03c-14.031 0-26.695 8.4492-32.059 21.418-5.375 12.965-2.4102 27.879 7.5195 37.797l495.88 495.88-495.88 495.88c-9.9297 9.9062-12.895 24.82-7.5195 37.801 5.3633 12.969 18.012 21.418 32.043 21.418h460.04c9.1836 0 18.012-3.6602 24.516-10.164l520.41-520.41c6.5039-6.5156 10.176-15.332 10.176-24.527 0.003906-9.1992-3.668-18.027-10.172-24.531z" fill-rule="evenodd"/>
</svg>
